<svg width="77" height="34" viewBox="0 0 77 34" fill="none" xmlns="http://www.w3.org/2000/svg">
<path d="M13.2314 1.72618C14.1811 0.629865 15.5601 0 17.0106 0H72C74.7614 0 77 2.23858 77 5V29C77 31.7614 74.7614 34 72 34H17.0106C15.5601 34 14.1811 33.3701 13.2314 32.2738L2.83604 20.2738C1.20827 18.3948 1.20827 15.6052 2.83605 13.7262L13.2314 1.72618Z" fill="#FD5C80"/>
<path d="M28.16 18.56H20.72V16.848H28.16V18.56ZM35.643 17.792H37.947V13.056L35.643 17.792ZM40.267 22H37.947V19.776H33.355V17.792L36.555 11.504H40.267V17.792H41.547V19.776H40.267V22ZM50.0514 16.72C50.0514 18.3627 49.726 19.6747 49.0754 20.656C48.4354 21.6373 47.486 22.128 46.2274 22.128C44.9687 22.128 44.0194 21.6427 43.3794 20.672C42.7394 19.6907 42.4194 18.3733 42.4194 16.72C42.4194 15.056 42.7394 13.7387 43.3794 12.768C44.0194 11.7973 44.9687 11.312 46.2274 11.312C47.486 11.312 48.4354 11.7973 49.0754 12.768C49.726 13.7387 50.0514 15.056 50.0514 16.72ZM46.2274 13.392C45.278 13.392 44.8034 14.5013 44.8034 16.72C44.8034 18.9387 45.278 20.048 46.2274 20.048C47.1874 20.048 47.6674 18.9387 47.6674 16.72C47.6674 14.5013 47.1874 13.392 46.2274 13.392ZM56.3374 22.016H54.2414L60.3054 10.688H62.4174L56.3374 22.016ZM56.5134 11.344C57.1107 11.9307 57.4094 12.6453 57.4094 13.488C57.4094 14.3307 57.1107 15.0507 56.5134 15.648C55.9267 16.2347 55.212 16.528 54.3694 16.528C53.5267 16.528 52.8067 16.2347 52.2094 15.648C51.6227 15.0507 51.3294 14.3307 51.3294 13.488C51.3294 12.6453 51.6227 11.9307 52.2094 11.344C52.8067 10.7467 53.5267 10.448 54.3694 10.448C55.212 10.448 55.9267 10.7467 56.5134 11.344ZM53.5374 12.672C53.3134 12.896 53.2014 13.168 53.2014 13.488C53.2014 13.808 53.3134 14.0853 53.5374 14.32C53.772 14.544 54.0494 14.656 54.3694 14.656C54.6894 14.656 54.9614 14.544 55.1854 14.32C55.42 14.0853 55.5374 13.808 55.5374 13.488C55.5374 13.168 55.42 12.896 55.1854 12.672C54.9614 12.4373 54.6894 12.32 54.3694 12.32C54.0494 12.32 53.772 12.4373 53.5374 12.672ZM64.5614 16.944C65.1587 17.5307 65.4574 18.2453 65.4574 19.088C65.4574 19.9307 65.1587 20.6507 64.5614 21.248C63.9747 21.8347 63.26 22.128 62.4174 22.128C61.5747 22.128 60.8547 21.8347 60.2574 21.248C59.6707 20.6507 59.3774 19.9307 59.3774 19.088C59.3774 18.2453 59.6707 17.5307 60.2574 16.944C60.8547 16.3467 61.5747 16.048 62.4174 16.048C63.26 16.048 63.9747 16.3467 64.5614 16.944ZM61.5854 18.272C61.3614 18.496 61.2494 18.768 61.2494 19.088C61.2494 19.408 61.3614 19.6853 61.5854 19.92C61.82 20.144 62.0974 20.256 62.4174 20.256C62.7374 20.256 63.0094 20.144 63.2334 19.92C63.468 19.6853 63.5854 19.408 63.5854 19.088C63.5854 18.768 63.468 18.496 63.2334 18.272C63.0094 18.0373 62.7374 17.92 62.4174 17.92C62.0974 17.92 61.82 18.0373 61.5854 18.272Z" fill="white"/>
</svg>
