<svg width="16" height="20" viewBox="0 0 16 20" fill="none" xmlns="http://www.w3.org/2000/svg">
<path d="M7.8676 20C7.46458 20 7.0825 19.8727 6.76281 19.6319C3.41557 17.1705 1.07382 13.5861 0.174918 9.54319C0.168785 9.51577 0.164668 9.48852 0.162521 9.4614C0.0546701 8.93766 4.08184e-10 8.39919 4.08184e-10 7.85985C-4.38058e-05 3.52588 3.52588 0 7.8598 0C12.1943 0 15.7209 3.52588 15.7209 7.85985C15.7209 8.43537 15.6591 9.00551 15.5372 9.55563C15.535 9.58226 15.5309 9.60877 15.5249 9.63496C14.625 13.5827 12.335 17.1022 9.077 19.545L8.83418 19.7229C8.8167 19.7356 8.79848 19.7474 8.77964 19.7581C8.50244 19.9164 8.18699 20 7.8676 20ZM1.33959 9.3606C2.18869 13.0959 4.36196 16.4061 7.46537 18.6881C7.67279 18.8445 7.94882 18.8648 8.1717 18.7499L8.37496 18.601C11.3857 16.3436 13.5102 13.0954 14.3602 9.44992C14.3625 9.42298 14.3668 9.39617 14.373 9.3695C14.4868 8.88189 14.5444 8.37396 14.5444 7.85985C14.5444 4.17465 11.5457 1.1765 7.8598 1.1765C4.1746 1.1765 1.17646 4.17465 1.17646 7.85985C1.17646 8.34224 1.22763 8.82341 1.32873 9.28968C1.33377 9.31343 1.33745 9.33699 1.33959 9.3606Z" fill="#1B1B1B"/>
<path d="M7.85994 11.223C6.00514 11.223 4.49628 9.71425 4.49628 7.85975C4.49628 6.00482 6.00518 4.49561 7.85994 4.49561C9.71518 4.49561 11.2245 6.00482 11.2245 7.85975C11.2246 9.71425 9.71518 11.223 7.85994 11.223ZM7.85994 5.67211C6.65391 5.67211 5.67274 6.65341 5.67274 7.85975C5.67274 9.06548 6.65391 10.0465 7.85994 10.0465C9.06645 10.0465 10.0481 9.06548 10.0481 7.85975C10.0481 6.65341 9.06645 5.67211 7.85994 5.67211Z" fill="#1B1B1B"/>
</svg>
