<svg width="26" height="24" viewBox="0 0 26 24" fill="none" xmlns="http://www.w3.org/2000/svg">
<path d="M12.5487 0.445683C12.7299 0.0661224 13.2701 0.0661225 13.4513 0.445683L16.7713 7.40344C16.8442 7.55619 16.9894 7.6617 17.1572 7.68382L24.8004 8.69133C25.2174 8.74629 25.3843 9.26013 25.0793 9.54967L19.4881 14.8573C19.3653 14.9738 19.3098 15.1446 19.3406 15.311L20.7443 22.8914C20.8209 23.3049 20.3838 23.6225 20.0142 23.4219L13.2385 19.7444C13.0898 19.6637 12.9102 19.6637 12.7615 19.7444L5.98583 23.4219C5.6162 23.6225 5.17911 23.3049 5.25568 22.8914L6.65935 15.311C6.69017 15.1446 6.6347 14.9738 6.51195 14.8573L0.920689 9.54967C0.615673 9.26013 0.782629 8.74629 1.19958 8.69133L8.84276 7.68382C9.01056 7.6617 9.15578 7.55619 9.22867 7.40344L12.5487 0.445683Z" fill="#256BD5"/>
</svg>
