<svg width="24" height="24" viewBox="0 0 24 24" fill="none" xmlns="http://www.w3.org/2000/svg">
<path fill-rule="evenodd" clip-rule="evenodd" d="M0 6C0 2.68629 2.68628 0 6 0H18C21.3137 0 24 2.68629 24 6V18C24 21.3137 21.3137 24 18 24H6C2.68628 24 0 21.3137 0 18V6ZM17 12C17 14.7614 14.7615 17 12 17C9.23853 17 7 14.7614 7 12C7 9.23858 9.23853 7 12 7C14.7615 7 17 9.23858 17 12ZM18.5 7C19.3284 7 20 6.32843 20 5.5C20 4.67157 19.3284 4 18.5 4C17.6716 4 17 4.67157 17 5.5C17 6.32843 17.6716 7 18.5 7Z" fill="#256BD5"/>
</svg>
