<svg width="134" height="32" viewBox="0 0 134 32" fill="none" xmlns="http://www.w3.org/2000/svg">
<path d="M9.76016 31.0002H13.7202V6.48021H23.3202V3.00021H0.160156V6.48021H9.76016V31.0002Z" fill="#256BD5"/>
<path d="M28.5289 5.72021C30.0489 5.72021 31.1289 4.60021 31.1289 3.16021C31.1289 1.80022 30.0089 0.720215 28.5289 0.720215C27.0489 0.720215 25.9289 1.84021 25.9289 3.24022C25.9289 4.64021 27.0489 5.72021 28.5289 5.72021ZM26.6089 31.0002H30.4489V9.80021H26.6089V31.0002Z" fill="#256BD5"/>
<path d="M56.9408 20.5202C56.9408 14.0002 52.5808 9.60021 46.4608 9.60021C40.3408 9.60021 35.8208 14.1202 35.8208 20.4002C35.8208 26.7202 40.3808 31.2402 47.2208 31.2402C50.7408 31.2402 53.6608 30.0402 55.5808 27.8002L53.4608 25.3202C51.9008 27.0402 49.8208 27.8802 47.3408 27.8802C43.1408 27.8802 40.1408 25.4002 39.6608 21.6802H56.8608C56.9008 21.3202 56.9408 20.8402 56.9408 20.5202ZM46.4608 12.8402C50.1808 12.8402 52.8608 15.3602 53.2608 18.9202H39.6608C40.0608 15.3202 42.7808 12.8402 46.4608 12.8402Z" fill="#256BD5"/>
<path d="M73.593 9.60021C70.233 9.60021 67.513 10.8402 65.953 13.0002V9.80021H62.273V31.0002H66.113V20.0802C66.113 15.4802 68.753 13.0402 72.833 13.0402C76.473 13.0402 78.553 15.0802 78.553 19.2402V31.0002H82.393V18.8002C82.393 12.5602 78.753 9.60021 73.593 9.60021Z" fill="#256BD5"/>
<path d="M105.777 1.32021V13.0002C104.017 10.7202 101.377 9.60021 98.3767 9.60021C92.1767 9.60021 87.6567 13.9202 87.6567 20.4002C87.6567 26.8802 92.1767 31.2402 98.3767 31.2402C101.497 31.2402 104.217 30.0402 105.937 27.6402V31.0002H109.617V1.32021H105.777ZM98.6967 27.8802C94.6167 27.8802 91.5367 24.9202 91.5367 20.4002C91.5367 15.8802 94.6167 12.9602 98.6967 12.9602C102.737 12.9602 105.817 15.8802 105.817 20.4002C105.817 24.9202 102.737 27.8802 98.6967 27.8802Z" fill="#256BD5"/>
<path d="M124.602 9.60021C121.202 9.60021 118.042 10.5602 115.842 12.3202L117.442 15.2002C119.082 13.8002 121.642 12.9202 124.162 12.9202C127.962 12.9202 129.842 14.8002 129.842 18.0402V18.8002H123.762C117.442 18.8002 115.242 21.6002 115.242 25.0002C115.242 28.6802 118.282 31.2402 123.082 31.2402C126.402 31.2402 128.762 30.1202 130.042 28.2002V31.0002H133.682V18.2002C133.682 12.4002 130.402 9.60021 124.602 9.60021ZM123.722 28.2802C120.802 28.2802 119.042 26.9602 119.042 24.8402C119.042 23.0402 120.122 21.5602 123.922 21.5602H129.842V24.5202C128.882 26.9602 126.602 28.2802 123.722 28.2802Z" fill="#256BD5"/>
</svg>
