<svg width="28" height="30" viewBox="0 0 28 30" fill="none" xmlns="http://www.w3.org/2000/svg">
<path fill-rule="evenodd" clip-rule="evenodd" d="M14.75 2.54995C11.1877 2.54995 8.29995 5.43771 8.29995 8.99995C8.29995 12.5622 11.1877 15.45 14.75 15.45C18.3122 15.45 21.2 12.5622 21.2 8.99995C21.2 5.43771 18.3122 2.54995 14.75 2.54995ZM6.19995 8.99995C6.19995 4.27792 10.0279 0.449951 14.75 0.449951C19.472 0.449951 23.2999 4.27792 23.2999 8.99995C23.2999 13.722 19.472 17.5499 14.75 17.5499C14.4802 17.5499 14.2134 17.5375 13.95 17.513C7.45521 17.5385 2.29995 22.5227 2.29995 28.5C2.29995 29.0799 1.82985 29.55 1.24995 29.55C0.670052 29.55 0.199951 29.0799 0.199951 28.5C0.199951 22.6192 4.28843 17.681 9.86084 16.0151C7.64772 14.4698 6.19995 11.9039 6.19995 8.99995ZM22.8691 18.5012C25.8708 20.8843 27.8 24.4716 27.8 28.5C27.8 29.0799 27.3299 29.55 26.75 29.55C26.1701 29.55 25.7 29.0799 25.7 28.5C25.7 25.166 24.1068 22.1652 21.5633 20.1458L22.8691 18.5012Z" fill="#1B1B1B"/>
</svg>
