<svg width="30" height="28" viewBox="0 0 30 28" fill="none" xmlns="http://www.w3.org/2000/svg">
<path fill-rule="evenodd" clip-rule="evenodd" d="M24.0518 3.6675C22.2499 2.86308 20.4425 2.86769 18.7584 3.7779C17.9284 4.22646 17.045 5.11723 16.0441 6.36167C15.4502 7.10008 14.873 7.88528 14.2656 8.71148C13.8397 9.29081 13.399 9.8903 12.9274 10.5079L11.2354 9.21591C11.6517 8.67078 12.0756 8.09493 12.499 7.51976C13.1382 6.65146 13.7762 5.7847 14.3852 5.02745C15.4072 3.75682 16.5147 2.57064 17.7462 1.90508C20.0716 0.648239 22.5788 0.678555 24.9196 1.72356C27.2085 2.74539 28.6985 4.5105 29.3579 6.68666C30.0092 8.83572 29.8318 11.3127 28.9555 13.7989C27.203 18.7713 22.5947 23.9852 15.449 27.3095C15.1644 27.4419 14.8358 27.4419 14.5511 27.3095C7.40544 23.9852 2.79714 18.7713 1.0446 13.7989C0.168364 11.3128 -0.00905675 8.83576 0.642177 6.68671C1.30162 4.51056 2.79162 2.74545 5.08049 1.72362C7.66612 0.56931 10.1047 0.900018 11.8441 1.73627C12.374 1.99099 12.597 2.62699 12.3423 3.1568C12.0875 3.68662 11.4515 3.90963 10.9217 3.65491C9.68007 3.05796 7.89859 2.79689 5.94832 3.66756C4.22403 4.43734 3.1602 5.71793 2.67954 7.30409C2.19067 8.91735 2.28688 10.9193 3.0524 13.0912C4.54895 17.3374 8.54596 22.0376 15.0001 25.166C21.4542 22.0376 25.4512 17.3373 26.9477 13.0912C27.7132 10.9192 27.8095 8.9173 27.3206 7.30404C26.8399 5.71787 25.7761 4.43728 24.0518 3.6675Z" fill="#1B1B1B"/>
</svg>
